<svg width="64" height="69" viewBox="0 0 64 69" fill="none" xmlns="http://www.w3.org/2000/svg">
<path fill-rule="evenodd" clip-rule="evenodd" d="M40.4691 12.0197C40.589 12.1901 40.6921 12.3737 40.7762 12.5686C45.7361 13.9067 49.3875 18.3349 49.3875 23.5771C49.3875 29.8757 44.1166 35 37.6378 35C34.2553 35 31.2027 33.6028 29.0569 31.3715H20.9116C19.1585 31.3715 17.7323 29.9849 17.7323 28.2806C17.7323 27.3018 18.2032 26.4283 18.9359 25.8616C18.2032 25.2949 17.7323 24.4215 17.7323 23.4426C17.7323 22.4638 18.2032 21.5904 18.9359 21.0237C18.2032 20.457 17.7323 19.5835 17.7323 18.6047C17.7323 17.6259 18.2032 16.7525 18.9359 16.1857C18.2032 15.619 17.7323 14.7456 17.7323 13.7668C17.7323 12.0625 19.1585 10.6759 20.9116 10.6759H22.7142C22.3622 10.1785 22.1557 9.57679 22.1557 8.92884C22.1557 8.28089 22.3623 7.67917 22.7142 7.18181H17.1793C15.4263 7.18181 14 5.7952 14 4.0909C14 2.38661 15.4263 1 17.1793 1H34.1128C35.8658 1 37.2921 2.38661 37.2921 4.0909C37.2921 4.73885 37.0855 5.34057 36.7337 5.83794H42.2685C44.0215 5.83794 45.4478 7.22454 45.4478 8.92884C45.4478 10.6331 44.0215 12.0197 42.2685 12.0197H40.4691ZM44.0655 8.92884C44.0655 7.96555 43.2594 7.18181 42.2685 7.18181H25.335C24.3441 7.18181 23.538 7.96555 23.538 8.92884C23.538 9.89213 24.3441 10.6759 25.335 10.6759H37.845H42.2685C43.2594 10.6759 44.0655 9.89213 44.0655 8.92884ZM15.3823 4.0909C15.3823 5.05419 16.1884 5.83794 17.1793 5.83794H34.1128C35.1037 5.83794 35.9098 5.05419 35.9098 4.0909C35.9098 3.12762 35.1037 2.34387 34.1128 2.34387H17.1793C16.1884 2.34387 15.3823 3.12762 15.3823 4.0909ZM37.845 12.0197H20.9116C19.9208 12.0197 19.1146 12.8035 19.1146 13.7668C19.1146 14.7301 19.9208 15.5138 20.9116 15.5138H29.3232C31.4515 13.4395 34.3931 12.1542 37.6378 12.1542C37.9717 12.1542 38.3022 12.1686 38.6292 12.1953C38.39 12.0826 38.1234 12.0197 37.845 12.0197ZM28.1422 16.8577H20.9116C19.9207 16.8577 19.1146 17.6414 19.1146 18.6047C19.1146 19.5681 19.9207 20.3517 20.9116 20.3517H26.3657C26.7509 19.0814 27.3576 17.9027 28.1422 16.8577ZM26.0483 21.6956H20.9116C19.9207 21.6956 19.1146 22.4793 19.1146 23.4426C19.1146 24.406 19.9207 25.1897 20.9116 25.1897H26.0057C25.9287 24.6627 25.888 24.1245 25.888 23.5771C25.888 22.9363 25.9435 22.3079 26.0483 21.6956ZM19.1146 28.2806C19.1146 29.2439 19.9207 30.0276 20.9116 30.0276H27.9462C27.2032 28.9758 26.6366 27.7977 26.2879 26.5335H20.9116C19.9207 26.5335 19.1146 27.3172 19.1146 28.2806ZM27.2704 23.5771C27.2704 29.1347 31.9212 33.6561 37.6378 33.6561C43.3543 33.6561 48.0052 29.1347 48.0052 23.5771C48.0052 18.0195 43.3543 13.4981 37.6378 13.4981C31.9212 13.4981 27.2704 18.0195 27.2704 23.5771ZM35.8747 21.2802C35.8747 22.0967 36.6641 22.7609 37.6344 22.7609C39.4869 22.7609 40.9939 24.1228 40.9939 25.7969C40.9939 27.2219 39.9017 28.42 38.4343 28.7452V29.0811C38.4343 29.5105 38.0761 29.8588 37.6344 29.8588C37.1928 29.8588 36.8346 29.5105 36.8346 29.0811V28.7452C35.3671 28.42 34.275 27.2219 34.275 25.7969C34.275 25.3675 34.6332 25.0193 35.0749 25.0193C35.5166 25.0193 35.8747 25.3675 35.8747 25.7969C35.8747 26.6134 36.6641 27.2776 37.6344 27.2776C38.6048 27.2776 39.3941 26.6134 39.3941 25.7969C39.3941 24.9804 38.6048 24.3161 37.6344 24.3161C35.782 24.3161 34.275 22.9542 34.275 21.2802C34.275 19.8553 35.3671 18.6571 36.8346 18.3319V17.9275C36.8346 17.4981 37.1928 17.1499 37.6344 17.1499C38.0761 17.1499 38.4343 17.4981 38.4343 17.9275V18.3319C39.9017 18.6571 40.9939 19.8553 40.9939 21.2802C40.9939 21.7096 40.6357 22.0579 40.194 22.0579C39.7523 22.0579 39.3941 21.7096 39.3941 21.2802C39.3941 20.4637 38.6048 19.7995 37.6344 19.7995C36.6641 19.7995 35.8747 20.4637 35.8747 21.2802Z" fill="#FF872C"/>
<path d="M40.7762 12.5686L40.5466 12.6677L40.5945 12.7785L40.7111 12.8099L40.7762 12.5686ZM40.4691 12.0197V11.7697H39.9874L40.2647 12.1637L40.4691 12.0197ZM29.0569 31.3715L29.2371 31.1982L29.1634 31.1215H29.0569V31.3715ZM18.9359 25.8616L19.0889 26.0594L19.3445 25.8616L19.0889 25.6639L18.9359 25.8616ZM18.9359 21.0237L19.0889 21.2214L19.3445 21.0237L19.0889 20.8259L18.9359 21.0237ZM18.9359 16.1857L19.0889 16.3835L19.3445 16.1857L19.0889 15.988L18.9359 16.1857ZM22.7142 10.6759V10.9259H23.1973L22.9182 10.5315L22.7142 10.6759ZM22.7142 7.18181L22.9182 7.32619L23.1973 6.93181H22.7142V7.18181ZM36.7337 5.83794L36.5296 5.69355L36.2505 6.08794H36.7337V5.83794ZM29.3232 15.5138V15.7638H29.4248L29.4977 15.6928L29.3232 15.5138ZM38.6292 12.1953L38.6088 12.4444L38.7357 11.9691L38.6292 12.1953ZM28.1422 16.8577L28.3421 17.0078L28.6425 16.6077H28.1422V16.8577ZM26.3657 20.3517V20.6017H26.5511L26.6049 20.4243L26.3657 20.3517ZM26.0483 21.6956L26.2947 21.7378L26.3448 21.4456H26.0483V21.6956ZM26.0057 25.1897V25.4397H26.2948L26.253 25.1536L26.0057 25.1897ZM27.9462 30.0276V30.2776H28.4288L28.1504 29.8834L27.9462 30.0276ZM26.2879 26.5335L26.5289 26.4671L26.4782 26.2835H26.2879V26.5335ZM38.4343 28.7452L38.3802 28.5011L38.1843 28.5445V28.7452H38.4343ZM36.8346 28.7452H37.0846V28.5445L36.8887 28.5011L36.8346 28.7452ZM36.8346 18.3319L36.8887 18.576L37.0846 18.5326V18.3319H36.8346ZM38.4343 18.3319H38.1843V18.5326L38.3802 18.576L38.4343 18.3319ZM41.0057 12.4695C40.9148 12.2589 40.8033 12.0602 40.6735 11.8758L40.2647 12.1637C40.3747 12.3199 40.4693 12.4886 40.5466 12.6677L41.0057 12.4695ZM49.6375 23.5771C49.6375 18.2145 45.9031 13.6928 40.8413 12.3272L40.7111 12.8099C45.5691 14.1206 49.1375 18.4552 49.1375 23.5771H49.6375ZM37.6378 35.25C44.2479 35.25 49.6375 30.0204 49.6375 23.5771H49.1375C49.1375 29.731 43.9852 34.75 37.6378 34.75V35.25ZM28.8767 31.5448C31.0683 33.8237 34.1854 35.25 37.6378 35.25V34.75C34.3252 34.75 31.3371 33.3819 29.2371 31.1982L28.8767 31.5448ZM20.9116 31.6215H29.0569V31.1215H20.9116V31.6215ZM17.4823 28.2806C17.4823 30.1295 19.0272 31.6215 20.9116 31.6215V31.1215C19.2899 31.1215 17.9823 29.8402 17.9823 28.2806H17.4823ZM18.783 25.6639C17.9933 26.2746 17.4823 27.2192 17.4823 28.2806H17.9823C17.9823 27.3844 18.4131 26.582 19.0889 26.0594L18.783 25.6639ZM17.4823 23.4426C17.4823 24.5041 17.9933 25.4486 18.783 26.0594L19.0889 25.6639C18.4131 25.1412 17.9823 24.3388 17.9823 23.4426H17.4823ZM18.783 20.8259C17.9933 21.4367 17.4823 22.3812 17.4823 23.4426H17.9823C17.9823 22.5465 18.4131 21.7441 19.0889 21.2214L18.783 20.8259ZM17.4823 18.6047C17.4823 19.6661 17.9933 20.6107 18.783 21.2214L19.0889 20.8259C18.4131 20.3033 17.9823 19.5009 17.9823 18.6047H17.4823ZM18.783 15.988C17.9933 16.5987 17.4823 17.5433 17.4823 18.6047H17.9823C17.9823 17.7085 18.4131 16.9062 19.0889 16.3835L18.783 15.988ZM17.4823 13.7668C17.4823 14.8282 17.9933 15.7727 18.783 16.3835L19.0889 15.988C18.4131 15.4653 17.9823 14.663 17.9823 13.7668H17.4823ZM20.9116 10.4259C19.0272 10.4259 17.4823 11.9178 17.4823 13.7668H17.9823C17.9823 12.2071 19.2899 10.9259 20.9116 10.9259V10.4259ZM22.7142 10.4259H20.9116V10.9259H22.7142V10.4259ZM21.9057 8.92884C21.9057 9.63092 22.1297 10.2827 22.5101 10.8203L22.9182 10.5315C22.5947 10.0743 22.4057 9.52265 22.4057 8.92884H21.9057ZM22.5101 7.03742C22.1298 7.57498 21.9057 8.22674 21.9057 8.92884H22.4057C22.4057 8.33504 22.5948 7.78337 22.9182 7.32619L22.5101 7.03742ZM17.1793 7.43181H22.7142V6.93181H17.1793V7.43181ZM13.75 4.0909C13.75 5.93987 15.2949 7.43181 17.1793 7.43181V6.93181C15.5577 6.93181 14.25 5.65053 14.25 4.0909H13.75ZM17.1793 0.75C15.2949 0.75 13.75 2.24193 13.75 4.0909H14.25C14.25 2.53128 15.5577 1.25 17.1793 1.25V0.75ZM34.1128 0.75H17.1793V1.25H34.1128V0.75ZM37.5421 4.0909C37.5421 2.24193 35.9972 0.75 34.1128 0.75V1.25C35.7345 1.25 37.0421 2.53128 37.0421 4.0909H37.5421ZM36.9377 5.98232C37.318 5.44476 37.5421 4.793 37.5421 4.0909H37.0421C37.0421 4.6847 36.853 5.23637 36.5296 5.69355L36.9377 5.98232ZM42.2685 5.58794H36.7337V6.08794H42.2685V5.58794ZM45.6978 8.92884C45.6978 7.07987 44.1529 5.58794 42.2685 5.58794V6.08794C43.8901 6.08794 45.1978 7.36921 45.1978 8.92884H45.6978ZM42.2685 12.2697C44.1529 12.2697 45.6978 10.7778 45.6978 8.92884H45.1978C45.1978 10.4885 43.8901 11.7697 42.2685 11.7697V12.2697ZM40.4691 12.2697H42.2685V11.7697H40.4691V12.2697ZM42.2685 7.43181C43.128 7.43181 43.8155 8.11022 43.8155 8.92884H44.3155C44.3155 7.82089 43.3908 6.93181 42.2685 6.93181V7.43181ZM25.335 7.43181H42.2685V6.93181H25.335V7.43181ZM23.788 8.92884C23.788 8.11022 24.4755 7.43181 25.335 7.43181V6.93181C24.2127 6.93181 23.288 7.82089 23.288 8.92884H23.788ZM25.335 10.4259C24.4755 10.4259 23.788 9.74746 23.788 8.92884H23.288C23.288 10.0368 24.2127 10.9259 25.335 10.9259V10.4259ZM37.845 10.4259H25.335V10.9259H37.845V10.4259ZM42.2685 10.4259H37.845V10.9259H42.2685V10.4259ZM43.8155 8.92884C43.8155 9.74746 43.128 10.4259 42.2685 10.4259V10.9259C43.3908 10.9259 44.3155 10.0368 44.3155 8.92884H43.8155ZM17.1793 5.58794C16.3198 5.58794 15.6323 4.90952 15.6323 4.0909H15.1323C15.1323 5.19886 16.057 6.08794 17.1793 6.08794V5.58794ZM34.1128 5.58794H17.1793V6.08794H34.1128V5.58794ZM35.6598 4.0909C35.6598 4.90952 34.9723 5.58794 34.1128 5.58794V6.08794C35.2351 6.08794 36.1598 5.19886 36.1598 4.0909H35.6598ZM34.1128 2.59387C34.9723 2.59387 35.6598 3.27228 35.6598 4.0909H36.1598C36.1598 2.98295 35.2351 2.09387 34.1128 2.09387V2.59387ZM17.1793 2.59387H34.1128V2.09387H17.1793V2.59387ZM15.6323 4.0909C15.6323 3.27228 16.3198 2.59387 17.1793 2.59387V2.09387C16.057 2.09387 15.1323 2.98295 15.1323 4.0909H15.6323ZM20.9116 12.2697H37.845V11.7697H20.9116V12.2697ZM19.3646 13.7668C19.3646 12.9482 20.0521 12.2697 20.9116 12.2697V11.7697C19.7894 11.7697 18.8646 12.6588 18.8646 13.7668H19.3646ZM20.9116 15.2638C20.0521 15.2638 19.3646 14.5854 19.3646 13.7668H18.8646C18.8646 14.8747 19.7894 15.7638 20.9116 15.7638V15.2638ZM29.3232 15.2638H20.9116V15.7638H29.3232V15.2638ZM37.6378 11.9042C34.3261 11.9042 31.3224 13.2163 29.1487 15.3348L29.4977 15.6928C31.5807 13.6628 34.4601 12.4042 37.6378 12.4042V11.9042ZM38.6495 11.9461C38.3162 11.9189 37.9789 11.9042 37.6378 11.9042V12.4042C37.9645 12.4042 38.2883 12.4183 38.6088 12.4444L38.6495 11.9461ZM37.845 12.2697C38.0856 12.2697 38.3159 12.3241 38.5226 12.4214L38.7357 11.9691C38.4642 11.8412 38.1613 11.7697 37.845 11.7697V12.2697ZM20.9116 17.1077H28.1422V16.6077H20.9116V17.1077ZM19.3646 18.6047C19.3646 17.7861 20.0521 17.1077 20.9116 17.1077V16.6077C19.7893 16.6077 18.8646 17.4968 18.8646 18.6047H19.3646ZM20.9116 20.1017C20.0521 20.1017 19.3646 19.4234 19.3646 18.6047H18.8646C18.8646 19.7127 19.7893 20.6017 20.9116 20.6017V20.1017ZM26.3657 20.1017H20.9116V20.6017H26.3657V20.1017ZM27.9423 16.7076C27.1406 17.7753 26.5204 18.9802 26.1265 20.2792L26.6049 20.4243C26.9815 19.1827 27.5745 18.0301 28.3421 17.0078L27.9423 16.7076ZM20.9116 21.9456H26.0483V21.4456H20.9116V21.9456ZM19.3646 23.4426C19.3646 22.624 20.0521 21.9456 20.9116 21.9456V21.4456C19.7893 21.4456 18.8646 22.3346 18.8646 23.4426H19.3646ZM20.9116 24.9397C20.0521 24.9397 19.3646 24.2613 19.3646 23.4426H18.8646C18.8646 24.5507 19.7893 25.4397 20.9116 25.4397V24.9397ZM26.0057 24.9397H20.9116V25.4397H26.0057V24.9397ZM25.638 23.5771C25.638 24.1369 25.6797 24.6872 25.7583 25.2258L26.253 25.1536C26.1778 24.6382 26.138 24.112 26.138 23.5771H25.638ZM25.8019 21.6534C25.6947 22.2794 25.638 22.9218 25.638 23.5771H26.138C26.138 22.9507 26.1922 22.3365 26.2947 21.7378L25.8019 21.6534ZM20.9116 29.7776C20.0521 29.7776 19.3646 29.0993 19.3646 28.2806H18.8646C18.8646 29.3886 19.7893 30.2776 20.9116 30.2776V29.7776ZM27.9462 29.7776H20.9116V30.2776H27.9462V29.7776ZM26.0469 26.6C26.4035 27.8927 26.9828 29.0971 27.742 30.1718L28.1504 29.8834C27.4236 28.8545 26.8697 27.7026 26.5289 26.4671L26.0469 26.6ZM20.9116 26.7835H26.2879V26.2835H20.9116V26.7835ZM19.3646 28.2806C19.3646 27.4619 20.0521 26.7835 20.9116 26.7835V26.2835C19.7893 26.2835 18.8646 27.1726 18.8646 28.2806H19.3646ZM37.6378 33.4061C32.0525 33.4061 27.5204 28.99 27.5204 23.5771H27.0204C27.0204 29.2794 31.7898 33.9061 37.6378 33.9061V33.4061ZM47.7552 23.5771C47.7552 28.99 43.223 33.4061 37.6378 33.4061V33.9061C43.4857 33.9061 48.2552 29.2794 48.2552 23.5771H47.7552ZM37.6378 13.7481C43.223 13.7481 47.7552 18.1642 47.7552 23.5771H48.2552C48.2552 17.8748 43.4857 13.2481 37.6378 13.2481V13.7481ZM27.5204 23.5771C27.5204 18.1642 32.0525 13.7481 37.6378 13.7481V13.2481C31.7898 13.2481 27.0204 17.8748 27.0204 23.5771H27.5204ZM37.6344 22.5109C36.76 22.5109 36.1247 21.9199 36.1247 21.2802H35.6247C35.6247 22.2734 36.5682 23.0109 37.6344 23.0109V22.5109ZM41.2439 25.7969C41.2439 23.9615 39.6005 22.5109 37.6344 22.5109V23.0109C39.3732 23.0109 40.7439 24.2841 40.7439 25.7969H41.2439ZM38.4884 28.9893C40.0507 28.6431 41.2439 27.358 41.2439 25.7969H40.7439C40.7439 27.0857 39.7528 28.197 38.3802 28.5011L38.4884 28.9893ZM38.6843 29.0811V28.7452H38.1843V29.0811H38.6843ZM37.6344 30.1088C38.2075 30.1088 38.6843 29.6552 38.6843 29.0811H38.1843C38.1843 29.3659 37.9448 29.6088 37.6344 29.6088V30.1088ZM36.5846 29.0811C36.5846 29.6552 37.0614 30.1088 37.6344 30.1088V29.6088C37.3241 29.6088 37.0846 29.3659 37.0846 29.0811H36.5846ZM36.5846 28.7452V29.0811H37.0846V28.7452H36.5846ZM34.025 25.7969C34.025 27.358 35.2182 28.6431 36.7805 28.9893L36.8887 28.5011C35.5161 28.197 34.525 27.0857 34.525 25.7969H34.025ZM35.0749 24.7693C34.5018 24.7693 34.025 25.2228 34.025 25.7969H34.525C34.525 25.5121 34.7646 25.2693 35.0749 25.2693V24.7693ZM36.1247 25.7969C36.1247 25.2228 35.6479 24.7693 35.0749 24.7693V25.2693C35.3852 25.2693 35.6247 25.5121 35.6247 25.7969H36.1247ZM37.6344 27.0276C36.76 27.0276 36.1247 26.4366 36.1247 25.7969H35.6247C35.6247 26.7901 36.5682 27.5276 37.6344 27.5276V27.0276ZM39.1441 25.7969C39.1441 26.4366 38.5089 27.0276 37.6344 27.0276V27.5276C38.7007 27.5276 39.6441 26.7901 39.6441 25.7969H39.1441ZM37.6344 24.5661C38.5089 24.5661 39.1441 25.1571 39.1441 25.7969H39.6441C39.6441 24.8036 38.7007 24.0661 37.6344 24.0661V24.5661ZM34.025 21.2802C34.025 23.1155 35.6684 24.5661 37.6344 24.5661V24.0661C35.8957 24.0661 34.525 22.7929 34.525 21.2802H34.025ZM36.7805 18.0878C35.2182 18.4341 34.025 19.7191 34.025 21.2802H34.525C34.525 19.9915 35.5161 18.8802 36.8887 18.576L36.7805 18.0878ZM36.5846 17.9275V18.3319H37.0846V17.9275H36.5846ZM37.6344 16.8999C37.0614 16.8999 36.5846 17.3534 36.5846 17.9275H37.0846C37.0846 17.6427 37.3241 17.3999 37.6344 17.3999V16.8999ZM38.6843 17.9275C38.6843 17.3534 38.2075 16.8999 37.6344 16.8999V17.3999C37.9448 17.3999 38.1843 17.6427 38.1843 17.9275H38.6843ZM38.6843 18.3319V17.9275H38.1843V18.3319H38.6843ZM41.2439 21.2802C41.2439 19.7191 40.0507 18.4341 38.4884 18.0878L38.3802 18.576C39.7528 18.8802 40.7439 19.9915 40.7439 21.2802H41.2439ZM40.194 22.3079C40.7671 22.3079 41.2439 21.8543 41.2439 21.2802H40.7439C40.7439 21.565 40.5043 21.8079 40.194 21.8079V22.3079ZM39.1441 21.2802C39.1441 21.8543 39.6209 22.3079 40.194 22.3079V21.8079C39.8837 21.8079 39.6441 21.565 39.6441 21.2802H39.1441ZM37.6344 20.0495C38.5089 20.0495 39.1441 20.6405 39.1441 21.2802H39.6441C39.6441 20.287 38.7007 19.5495 37.6344 19.5495V20.0495ZM36.1247 21.2802C36.1247 20.6405 36.76 20.0495 37.6344 20.0495V19.5495C36.5682 19.5495 35.6247 20.287 35.6247 21.2802H36.1247Z" fill="#FF872C"/>
<path d="M0 57.6212C0 61.1512 2.46966 63.5806 5.54062 63.5806C7.51635 63.5806 8.93371 62.6669 9.68534 61.691V63.3937H12.155V51.9526H9.68534V53.6137C8.95519 52.6793 7.58077 51.7657 5.58357 51.7657C2.46966 51.7657 0 54.0913 0 57.6212ZM9.68534 57.6628C9.68534 60.1337 7.94584 61.5249 6.09897 61.5249C4.27358 61.5249 2.51261 60.0922 2.51261 57.6212C2.51261 55.1503 4.27358 53.8214 6.09897 53.8214C7.94584 53.8214 9.68534 55.2126 9.68534 57.6628Z" fill="white"/>
<path d="M23.7674 63.3937H26.1941V56.6453C26.1941 53.4476 24.111 51.7657 21.3407 51.7657C19.9233 51.7657 18.6133 52.3263 17.8188 53.2607V51.9526H15.3706V63.3937H17.8188V56.9983C17.8188 54.9011 18.9999 53.8214 20.8038 53.8214C22.5863 53.8214 23.7674 54.9011 23.7674 56.9983V63.3937Z" fill="white"/>
<path d="M49.1759 53.7591C51.0013 53.7591 52.4402 54.8804 52.4831 56.6453H45.9332C46.1909 54.8388 47.5224 53.7591 49.1759 53.7591ZM54.7166 59.9884H52.0751C51.6241 60.8812 50.7866 61.5872 49.2833 61.5872C47.4794 61.5872 46.0835 60.4452 45.9117 58.5556H54.9528C55.0172 58.1611 55.0387 57.7873 55.0387 57.3928C55.0387 54.029 52.6549 51.7657 49.2833 51.7657C45.7829 51.7657 43.3776 54.0705 43.3776 57.6628C43.3776 61.255 45.8902 63.5806 49.2833 63.5806C52.1825 63.5806 54.0508 61.9817 54.7166 59.9884Z" fill="white"/>
<path d="M28.6193 57.8555C28.6193 61.3854 31.0889 63.8149 34.1599 63.8149C36.1356 63.8149 37.553 62.9012 38.3046 61.9253V63.628H40.7743V42.1869H38.3046V53.848C37.5745 52.9136 36.2 52 34.2028 52C31.0889 52 28.6193 54.3256 28.6193 57.8555ZM38.3046 57.897C38.3046 60.368 36.5651 61.7592 34.7182 61.7592C32.8928 61.7592 31.1319 60.3265 31.1319 57.8555C31.1319 55.3846 32.8928 54.0557 34.7182 54.0557C36.5651 54.0557 38.3046 55.4469 38.3046 57.897Z" fill="white"/>
<path d="M60.3989 53.2607V51.9526H57.9507V68.3937H59.1748H60.3989V56.9983C60.3989 54.9011 61.5801 53.8214 63.384 53.8214V51.7927C62.1773 51.915 61.092 52.4457 60.3989 53.2607Z" fill="white"/>
</svg>
